ffmpeg started on 2026-01-19 at 11:55:11
Report written to "D:\Convert\FFMetrics\reports\ssim_report-6.txt"
Log level: 32
Command line:
ffmpeg -hide_banner -nostdin -r 24000/1001 -i "F:\\Convert\\files\\[DC] Make Heroine ga Oosugiru - 07_Telegram_HEVC(169).mkv" -r 24000/1001 -i "F:\\Convert\\files\\[DC] Make Heroine ga Oosugiru - 07_Telegram.mp4" -lavfi "[0:v]settb=AVTB,setpts=PTS-STARTPTS,format=pix_fmts=yuv420p10le,fps=24000/1001,scale=1920:1080:flags=lanczos:param0=3:out_range=limited:out_color_matrix=bt709:out_chroma_loc=left,setsar=1/1,setdar=(1920/1080)*(1/1),colorspace=format=yuv420p10:range=tv:primaries=bt709:trc=bt709:space=bt709:fast=0[main];[1:v]settb=AVTB,setpts=PTS-STARTPTS,format=pix_fmts=yuv420p,fps=24000/1001,scale=1920:1080:flags=lanczos:param0=3:out_range=limited:out_color_matrix=bt709:out_chroma_loc=left,setsar=1.000,setdar=1.778,colorspace=format=yuv420p:range=tv:primaries=bt709:trc=bt709:space=bt709:fast=0[ref];[main][ref]ssim=eof_action=endall:stats_file='D\\:/Convert/FFMetrics/logs/ssim_logfile-6.txt'" -f null -
Input #0, matroska,webm, from 'F:\Convert\files\[DC] Make Heroine ga Oosugiru - 07_Telegram_HEVC(169).mkv':
  Metadata:
    COMPATIBLE_BRANDS: isomiso2avc1mp41
    MAJOR_BRAND     : isom
    MINOR_VERSION   : 512
    ENCODER         : Lavf61.7.100
  Duration: 00:24:06.79, start: -0.021000, bitrate: 1319 kb/s
  Stream #0:0: Video: hevc (Main 10), yuv420p10le(tv, bt709, progressive), 1920x1080 [SAR 1:1 DAR 16:9], 23.98 fps, 23.98 tbr, 1k tbn (default)
      Metadata:
        HANDLER_NAME    : VideoHandler
        VENDOR_ID       : [0][0][0][0]
        ENCODER         : Lavc61.19.100 libx265
        BPS             : 1122748
        DURATION        : 00:24:06.569708333
        NUMBER_OF_FRAMES: 34683
        NUMBER_OF_BYTES : 203016612
        _STATISTICS_WRITING_APP: mkvpropedit v94.0 ('Initiate') 64-bit
        _STATISTICS_WRITING_DATE_UTC: 2026-01-19 06:42:19
        _STATISTICS_TAGS: BPS DURATION NUMBER_OF_FRAMES NUMBER_OF_BYTES
  Stream #0:1: Audio: aac (LC), 48000 Hz, stereo, fltp (default)
      Metadata:
        HANDLER_NAME    : SoundHandler
        VENDOR_ID       : [0][0][0][0]
        ENCODER         : Lavc61.19.100 aac
        BPS             : 193194
        DURATION        : 00:24:06.784000000
        NUMBER_OF_FRAMES: 67819
        NUMBER_OF_BYTES : 34938755
        _STATISTICS_WRITING_APP: mkvpropedit v94.0 ('Initiate') 64-bit
        _STATISTICS_WRITING_DATE_UTC: 2026-01-19 06:42:19
        _STATISTICS_TAGS: BPS DURATION NUMBER_OF_FRAMES NUMBER_OF_BYTES
Input #1, mov,mp4,m4a,3gp,3g2,mj2, from 'F:\Convert\files\[DC] Make Heroine ga Oosugiru - 07_Telegram.mp4':
  Metadata:
    major_brand     : isom
    minor_version   : 512
    compatible_brands: isomiso2avc1mp41
    encoder         : Lavf60.16.100
  Duration: 00:24:06.74, start: 0.000000, bitrate: 3764 kb/s
  Stream #1:0[0x1](und): Video: h264 (High) (avc1 / 0x31637661), yuv420p(tv, bt709, progressive), 1920x1080 [SAR 1:1 DAR 16:9], 3616 kb/s, 23.98 fps, 23.98 tbr, 24k tbn (default)
      Metadata:
        handler_name    : VideoHandler
        vendor_id       : [0][0][0][0]
        encoder         : Lavc60.31.102 h264_qsv
  Stream #1:1[0x2](und): Audio: aac (HE-AACv2) (mp4a / 0x6134706D), 48000 Hz, stereo, fltp, 144 kb/s (default)
      Metadata:
        handler_name    : SoundHandler
        vendor_id       : [0][0][0][0]
Stream mapping:
  Stream #0:0 (hevc) -> settb:default
  Stream #1:0 (h264) -> settb:default
  ssim:default -> Stream #0:0 (wrapped_avframe)
  Stream #0:1 -> #0:1 (aac (native) -> pcm_s16le (native))
Output #0, null, to 'pipe:':
  Metadata:
    COMPATIBLE_BRANDS: isomiso2avc1mp41
    MAJOR_BRAND     : isom
    MINOR_VERSION   : 512
    encoder         : Lavf61.7.100
  Stream #0:0: Video: wrapped_avframe, yuv420p10le(tv, bt709, progressive), 1920x1080 [SAR 1:1 DAR 16:9], q=2-31, 200 kb/s, 23.98 fps, 23.98 tbn
      Metadata:
        encoder         : Lavc61.19.100 wrapped_avframe
  Stream #0:1: Audio: pcm_s16le, 48000 Hz, stereo, s16, 1536 kb/s (default)
      Metadata:
        HANDLER_NAME    : SoundHandler
        VENDOR_ID       : [0][0][0][0]
        _STATISTICS_TAGS: BPS DURATION NUMBER_OF_FRAMES NUMBER_OF_BYTES
        BPS             : 193194
        DURATION        : 00:24:06.784000000
        NUMBER_OF_FRAMES: 67819
        NUMBER_OF_BYTES : 34938755
        _STATISTICS_WRITING_APP: mkvpropedit v94.0 ('Initiate') 64-bit
        _STATISTICS_WRITING_DATE_UTC: 2026-01-19 06:42:19
        encoder         : Lavc61.19.100 pcm_s16le
frame=  131 fps=0.0 q=-0.0 size=N/A time=00:00:05.46 bitrate=N/A speed=10.5x    frame=  317 fps=307 q=-0.0 size=N/A time=00:00:13.22 bitrate=N/A speed=12.8x    frame=  512 fps=331 q=-0.0 size=N/A time=00:00:21.35 bitrate=N/A speed=13.8x    frame=  705 fps=343 q=-0.0 size=N/A time=00:00:29.40 bitrate=N/A speed=14.3x    frame=  892 fps=345 q=-0.0 size=N/A time=00:00:37.20 bitrate=N/A speed=14.4x    frame= 1032 fps=334 q=-0.0 size=N/A time=00:00:43.04 bitrate=N/A speed=13.9x    frame= 1199 fps=333 q=-0.0 size=N/A time=00:00:50.00 bitrate=N/A speed=13.9x    frame= 1365 fps=330 q=-0.0 size=N/A time=00:00:56.93 bitrate=N/A speed=13.8x    frame= 1528 fps=329 q=-0.0 size=N/A time=00:01:03.73 bitrate=N/A speed=13.7x    frame= 1674 fps=325 q=-0.0 size=N/A time=00:01:09.81 bitrate=N/A speed=13.6x    frame= 1846 fps=325 q=-0.0 size=N/A time=00:01:16.99 bitrate=N/A speed=13.6x    frame= 2009 fps=325 q=-0.0 size=N/A time=00:01:23.79 bitrate=N/A speed=13.5x    frame= 2126 fps=317 q=-0.0 size=N/A time=00:01:28.67 bitrate=N/A speed=13.2x    frame= 2276 fps=315 q=-0.0 size=N/A time=00:01:34.92 bitrate=N/A speed=13.2x    frame= 2429 fps=314 q=-0.0 size=N/A time=00:01:41.30 bitrate=N/A speed=13.1x    frame= 2562 fps=310 q=-0.0 size=N/A time=00:01:46.85 bitrate=N/A speed=12.9x    frame= 2725 fps=310 q=-0.0 size=N/A time=00:01:53.65 bitrate=N/A speed=12.9x    frame= 2899 fps=312 q=-0.0 size=N/A time=00:02:00.91 bitrate=N/A speed=  13x    frame= 3087 fps=314 q=-0.0 size=N/A time=00:02:08.75 bitrate=N/A speed=13.1x    frame= 3282 fps=318 q=-0.0 size=N/A time=00:02:16.88 bitrate=N/A speed=13.2x    frame= 3482 fps=321 q=-0.0 size=N/A time=00:02:25.22 bitrate=N/A speed=13.4x    frame= 3684 fps=324 q=-0.0 size=N/A time=00:02:33.65 bitrate=N/A speed=13.5x    frame= 3882 fps=327 q=-0.0 size=N/A time=00:02:41.91 bitrate=N/A speed=13.6x    frame= 4072 fps=329 q=-0.0 size=N/A time=00:02:49.83 bitrate=N/A speed=13.7x    frame= 4268 fps=331 q=-0.0 size=N/A time=00:02:58.01 bitrate=N/A speed=13.8x    frame= 4463 fps=332 q=-0.0 size=N/A time=00:03:06.14 bitrate=N/A speed=13.9x    frame= 4647 fps=333 q=-0.0 size=N/A time=00:03:13.81 bitrate=N/A speed=13.9x    frame= 4840 fps=335 q=-0.0 size=N/A time=00:03:21.86 bitrate=N/A speed=  14x    frame= 5036 fps=336 q=-0.0 size=N/A time=00:03:30.04 bitrate=N/A speed=  14x    frame= 5226 fps=337 q=-0.0 size=N/A time=00:03:37.96 bitrate=N/A speed=14.1x    frame= 5418 fps=339 q=-0.0 size=N/A time=00:03:45.97 bitrate=N/A speed=14.1x    frame= 5610 fps=340 q=-0.0 size=N/A time=00:03:53.98 bitrate=N/A speed=14.2x    frame= 5806 fps=341 q=-0.0 size=N/A time=00:04:02.15 bitrate=N/A speed=14.2x    frame= 6001 fps=342 q=-0.0 size=N/A time=00:04:10.29 bitrate=N/A speed=14.3x    frame= 6190 fps=343 q=-0.0 size=N/A time=00:04:18.17 bitrate=N/A speed=14.3x    frame= 6390 fps=344 q=-0.0 size=N/A time=00:04:26.51 bitrate=N/A speed=14.3x    frame= 6584 fps=345 q=-0.0 size=N/A time=00:04:34.60 bitrate=N/A speed=14.4x    frame= 6780 fps=346 q=-0.0 size=N/A time=00:04:42.78 bitrate=N/A speed=14.4x    frame= 6971 fps=346 q=-0.0 size=N/A time=00:04:50.74 bitrate=N/A speed=14.4x    frame= 7153 fps=347 q=-0.0 size=N/A time=00:04:58.33 bitrate=N/A speed=14.5x    frame= 7352 fps=347 q=-0.0 size=N/A time=00:05:06.63 bitrate=N/A speed=14.5x    frame= 7536 fps=348 q=-0.0 size=N/A time=00:05:14.31 bitrate=N/A speed=14.5x    frame= 7718 fps=348 q=-0.0 size=N/A time=00:05:21.90 bitrate=N/A speed=14.5x    frame= 7910 fps=348 q=-0.0 size=N/A time=00:05:29.91 bitrate=N/A speed=14.5x    frame= 8098 fps=349 q=-0.0 size=N/A time=00:05:37.75 bitrate=N/A speed=14.5x    frame= 8294 fps=349 q=-0.0 size=N/A time=00:05:45.92 bitrate=N/A speed=14.6x    frame= 8478 fps=350 q=-0.0 size=N/A time=00:05:53.60 bitrate=N/A speed=14.6x    frame= 8679 fps=350 q=-0.0 size=N/A time=00:06:01.98 bitrate=N/A speed=14.6x    frame= 8868 fps=351 q=-0.0 size=N/A time=00:06:09.86 bitrate=N/A speed=14.6x    frame= 9067 fps=351 q=-0.0 size=N/A time=00:06:18.16 bitrate=N/A speed=14.7x    frame= 9255 fps=352 q=-0.0 size=N/A time=00:06:26.01 bitrate=N/A speed=14.7x    frame= 9452 fps=352 q=-0.0 size=N/A time=00:06:34.22 bitrate=N/A speed=14.7x    frame= 9647 fps=353 q=-0.0 size=N/A time=00:06:42.36 bitrate=N/A speed=14.7x    frame= 9836 fps=353 q=-0.0 size=N/A time=00:06:50.24 bitrate=N/A speed=14.7x    frame=10030 fps=353 q=-0.0 size=N/A time=00:06:58.33 bitrate=N/A speed=14.7x    frame=10220 fps=354 q=-0.0 size=N/A time=00:07:06.25 bitrate=N/A speed=14.8x    frame=10412 fps=354 q=-0.0 size=N/A time=00:07:14.26 bitrate=N/A speed=14.8x    frame=10609 fps=354 q=-0.0 size=N/A time=00:07:22.48 bitrate=N/A speed=14.8x    frame=10792 fps=355 q=-0.0 size=N/A time=00:07:30.11 bitrate=N/A speed=14.8x    frame=10977 fps=355 q=-0.0 size=N/A time=00:07:37.83 bitrate=N/A speed=14.8x    frame=11174 fps=355 q=-0.0 size=N/A time=00:07:46.04 bitrate=N/A speed=14.8x    frame=11365 fps=355 q=-0.0 size=N/A time=00:07:54.01 bitrate=N/A speed=14.8x    frame=11559 fps=356 q=-0.0 size=N/A time=00:08:02.10 bitrate=N/A speed=14.8x    frame=11745 fps=356 q=-0.0 size=N/A time=00:08:09.86 bitrate=N/A speed=14.8x    frame=11955 fps=356 q=-0.0 size=N/A time=00:08:18.62 bitrate=N/A speed=14.9x    frame=12144 fps=357 q=-0.0 size=N/A time=00:08:26.50 bitrate=N/A speed=14.9x    frame=12332 fps=357 q=-0.0 size=N/A time=00:08:34.34 bitrate=N/A speed=14.9x    frame=12531 fps=357 q=-0.0 size=N/A time=00:08:42.64 bitrate=N/A speed=14.9x    frame=12725 fps=357 q=-0.0 size=N/A time=00:08:50.73 bitrate=N/A speed=14.9x    frame=12921 fps=358 q=-0.0 size=N/A time=00:08:58.91 bitrate=N/A speed=14.9x    frame=13110 fps=358 q=-0.0 size=N/A time=00:09:06.79 bitrate=N/A speed=14.9x    frame=13308 fps=358 q=-0.0 size=N/A time=00:09:15.05 bitrate=N/A speed=14.9x    frame=13497 fps=358 q=-0.0 size=N/A time=00:09:22.93 bitrate=N/A speed=14.9x    frame=13687 fps=359 q=-0.0 size=N/A time=00:09:30.86 bitrate=N/A speed=  15x    frame=13885 fps=359 q=-0.0 size=N/A time=00:09:39.12 bitrate=N/A speed=  15x    frame=14078 fps=359 q=-0.0 size=N/A time=00:09:47.16 bitrate=N/A speed=  15x    frame=14257 fps=359 q=-0.0 size=N/A time=00:09:54.63 bitrate=N/A speed=  15x    frame=14451 fps=359 q=-0.0 size=N/A time=00:10:02.72 bitrate=N/A speed=  15x    frame=14643 fps=359 q=-0.0 size=N/A time=00:10:10.73 bitrate=N/A speed=  15x    frame=14836 fps=359 q=-0.0 size=N/A time=00:10:18.78 bitrate=N/A speed=  15x    frame=15018 fps=359 q=-0.0 size=N/A time=00:10:26.37 bitrate=N/A speed=  15x    frame=15181 fps=359 q=-0.0 size=N/A time=00:10:33.17 bitrate=N/A speed=  15x    frame=15378 fps=359 q=-0.0 size=N/A time=00:10:41.39 bitrate=N/A speed=  15x    frame=15572 fps=359 q=-0.0 size=N/A time=00:10:49.48 bitrate=N/A speed=  15x    frame=15761 fps=359 q=-0.0 size=N/A time=00:10:57.36 bitrate=N/A speed=  15x    frame=15950 fps=359 q=-0.0 size=N/A time=00:11:05.24 bitrate=N/A speed=  15x    frame=16148 fps=360 q=-0.0 size=N/A time=00:11:13.50 bitrate=N/A speed=  15x    frame=16339 fps=360 q=-0.0 size=N/A time=00:11:21.47 bitrate=N/A speed=  15x    frame=16529 fps=360 q=-0.0 size=N/A time=00:11:29.39 bitrate=N/A speed=  15x    frame=16724 fps=360 q=-0.0 size=N/A time=00:11:37.53 bitrate=N/A speed=  15x    frame=16921 fps=360 q=-0.0 size=N/A time=00:11:45.74 bitrate=N/A speed=  15x    frame=17116 fps=361 q=-0.0 size=N/A time=00:11:53.87 bitrate=N/A speed=  15x    frame=17310 fps=361 q=-0.0 size=N/A time=00:12:01.97 bitrate=N/A speed=  15x    frame=17502 fps=361 q=-0.0 size=N/A time=00:12:09.97 bitrate=N/A speed=15.1x    frame=17689 fps=361 q=-0.0 size=N/A time=00:12:17.77 bitrate=N/A speed=  15x    frame=17880 fps=361 q=-0.0 size=N/A time=00:12:25.74 bitrate=N/A speed=15.1x    frame=18066 fps=361 q=-0.0 size=N/A time=00:12:33.50 bitrate=N/A speed=15.1x    frame=18259 fps=361 q=-0.0 size=N/A time=00:12:41.55 bitrate=N/A speed=15.1x    frame=18452 fps=361 q=-0.0 size=N/A time=00:12:49.60 bitrate=N/A speed=15.1x    frame=18643 fps=361 q=-0.0 size=N/A time=00:12:57.56 bitrate=N/A speed=15.1x    frame=18834 fps=361 q=-0.0 size=N/A time=00:13:05.53 bitrate=N/A speed=15.1x    frame=19033 fps=362 q=-0.0 size=N/A time=00:13:13.83 bitrate=N/A speed=15.1x    frame=19226 fps=362 q=-0.0 size=N/A time=00:13:21.88 bitrate=N/A speed=15.1x    frame=19423 fps=362 q=-0.0 size=N/A time=00:13:30.10 bitrate=N/A speed=15.1x    frame=19614 fps=362 q=-0.0 size=N/A time=00:13:38.06 bitrate=N/A speed=15.1x    frame=19810 fps=362 q=-0.0 size=N/A time=00:13:46.24 bitrate=N/A speed=15.1x    frame=20015 fps=362 q=-0.0 size=N/A time=00:13:54.79 bitrate=N/A speed=15.1x    frame=20205 fps=362 q=-0.0 size=N/A time=00:14:02.71 bitrate=N/A speed=15.1x    frame=20392 fps=363 q=-0.0 size=N/A time=00:14:10.51 bitrate=N/A speed=15.1x    frame=20572 fps=362 q=-0.0 size=N/A time=00:14:18.02 bitrate=N/A speed=15.1x    frame=20754 fps=362 q=-0.0 size=N/A time=00:14:25.61 bitrate=N/A speed=15.1x    frame=20945 fps=362 q=-0.0 size=N/A time=00:14:33.58 bitrate=N/A speed=15.1x    frame=21133 fps=362 q=-0.0 size=N/A time=00:14:41.42 bitrate=N/A speed=15.1x    frame=21333 fps=363 q=-0.0 size=N/A time=00:14:49.76 bitrate=N/A speed=15.1x    frame=21527 fps=363 q=-0.0 size=N/A time=00:14:57.85 bitrate=N/A speed=15.1x    frame=21720 fps=363 q=-0.0 size=N/A time=00:15:05.90 bitrate=N/A speed=15.1x    frame=21916 fps=363 q=-0.0 size=N/A time=00:15:14.07 bitrate=N/A speed=15.1x    frame=22106 fps=363 q=-0.0 size=N/A time=00:15:22.00 bitrate=N/A speed=15.1x    frame=22305 fps=363 q=-0.0 size=N/A time=00:15:30.30 bitrate=N/A speed=15.2x    frame=22499 fps=363 q=-0.0 size=N/A time=00:15:38.39 bitrate=N/A speed=15.2x    frame=22687 fps=363 q=-0.0 size=N/A time=00:15:46.23 bitrate=N/A speed=15.2x    frame=22873 fps=363 q=-0.0 size=N/A time=00:15:53.99 bitrate=N/A speed=15.2x    frame=23065 fps=363 q=-0.0 size=N/A time=00:16:02.00 bitrate=N/A speed=15.2x    frame=23263 fps=364 q=-0.0 size=N/A time=00:16:10.26 bitrate=N/A speed=15.2x    frame=23457 fps=364 q=-0.0 size=N/A time=00:16:18.35 bitrate=N/A speed=15.2x    frame=23652 fps=364 q=-0.0 size=N/A time=00:16:26.48 bitrate=N/A speed=15.2x    frame=23837 fps=364 q=-0.0 size=N/A time=00:16:34.20 bitrate=N/A speed=15.2x    frame=24026 fps=364 q=-0.0 size=N/A time=00:16:42.08 bitrate=N/A speed=15.2x    frame=24216 fps=364 q=-0.0 size=N/A time=00:16:50.00 bitrate=N/A speed=15.2x    frame=24396 fps=364 q=-0.0 size=N/A time=00:16:57.51 bitrate=N/A speed=15.2x    frame=24598 fps=364 q=-0.0 size=N/A time=00:17:05.94 bitrate=N/A speed=15.2x    frame=24793 fps=364 q=-0.0 size=N/A time=00:17:14.07 bitrate=N/A speed=15.2x    frame=24978 fps=364 q=-0.0 size=N/A time=00:17:21.79 bitrate=N/A speed=15.2x    frame=25174 fps=364 q=-0.0 size=N/A time=00:17:29.96 bitrate=N/A speed=15.2x    frame=25373 fps=364 q=-0.0 size=N/A time=00:17:38.26 bitrate=N/A speed=15.2x    frame=25568 fps=364 q=-0.0 size=N/A time=00:17:46.39 bitrate=N/A speed=15.2x    frame=25760 fps=364 q=-0.0 size=N/A time=00:17:54.40 bitrate=N/A speed=15.2x    frame=25950 fps=364 q=-0.0 size=N/A time=00:18:02.33 bitrate=N/A speed=15.2x    frame=26142 fps=365 q=-0.0 size=N/A time=00:18:10.33 bitrate=N/A speed=15.2x    frame=26343 fps=365 q=-0.0 size=N/A time=00:18:18.72 bitrate=N/A speed=15.2x    frame=26534 fps=365 q=-0.0 size=N/A time=00:18:26.68 bitrate=N/A speed=15.2x    frame=26723 fps=365 q=-0.0 size=N/A time=00:18:34.57 bitrate=N/A speed=15.2x    frame=26919 fps=365 q=-0.0 size=N/A time=00:18:42.74 bitrate=N/A speed=15.2x    frame=27090 fps=365 q=-0.0 size=N/A time=00:18:49.87 bitrate=N/A speed=15.2x    frame=27273 fps=365 q=-0.0 size=N/A time=00:18:57.51 bitrate=N/A speed=15.2x    frame=27462 fps=365 q=-0.0 size=N/A time=00:19:05.39 bitrate=N/A speed=15.2x    frame=27649 fps=365 q=-0.0 size=N/A time=00:19:13.19 bitrate=N/A speed=15.2x    frame=27834 fps=365 q=-0.0 size=N/A time=00:19:20.90 bitrate=N/A speed=15.2x    frame=28028 fps=365 q=-0.0 size=N/A time=00:19:29.00 bitrate=N/A speed=15.2x    frame=28209 fps=365 q=-0.0 size=N/A time=00:19:36.55 bitrate=N/A speed=15.2x    frame=28401 fps=365 q=-0.0 size=N/A time=00:19:44.55 bitrate=N/A speed=15.2x    frame=28596 fps=365 q=-0.0 size=N/A time=00:19:52.69 bitrate=N/A speed=15.2x    frame=28773 fps=365 q=-0.0 size=N/A time=00:20:00.07 bitrate=N/A speed=15.2x    frame=28950 fps=364 q=-0.0 size=N/A time=00:20:07.45 bitrate=N/A speed=15.2x    frame=29126 fps=364 q=-0.0 size=N/A time=00:20:14.79 bitrate=N/A speed=15.2x    frame=29303 fps=364 q=-0.0 size=N/A time=00:20:22.17 bitrate=N/A speed=15.2x    frame=29477 fps=364 q=-0.0 size=N/A time=00:20:29.43 bitrate=N/A speed=15.2x    frame=29658 fps=364 q=-0.0 size=N/A time=00:20:36.98 bitrate=N/A speed=15.2x    frame=29827 fps=364 q=-0.0 size=N/A time=00:20:44.03 bitrate=N/A speed=15.2x    frame=29995 fps=363 q=-0.0 size=N/A time=00:20:51.04 bitrate=N/A speed=15.2x    frame=30170 fps=363 q=-0.0 size=N/A time=00:20:58.34 bitrate=N/A speed=15.1x    frame=30360 fps=363 q=-0.0 size=N/A time=00:21:06.26 bitrate=N/A speed=15.1x    frame=30552 fps=363 q=-0.0 size=N/A time=00:21:14.27 bitrate=N/A speed=15.2x    frame=30741 fps=363 q=-0.0 size=N/A time=00:21:22.15 bitrate=N/A speed=15.2x    frame=30944 fps=364 q=-0.0 size=N/A time=00:21:30.62 bitrate=N/A speed=15.2x    frame=31136 fps=364 q=-0.0 size=N/A time=00:21:38.63 bitrate=N/A speed=15.2x    frame=31324 fps=364 q=-0.0 size=N/A time=00:21:46.47 bitrate=N/A speed=15.2x    frame=31502 fps=363 q=-0.0 size=N/A time=00:21:53.89 bitrate=N/A speed=15.2x    frame=31698 fps=364 q=-0.0 size=N/A time=00:22:02.07 bitrate=N/A speed=15.2x    frame=31876 fps=363 q=-0.0 size=N/A time=00:22:09.49 bitrate=N/A speed=15.2x    frame=32054 fps=363 q=-0.0 size=N/A time=00:22:16.91 bitrate=N/A speed=15.2x    frame=32250 fps=363 q=-0.0 size=N/A time=00:22:25.09 bitrate=N/A speed=15.2x    frame=32440 fps=363 q=-0.0 size=N/A time=00:22:33.01 bitrate=N/A speed=15.2x    frame=32629 fps=363 q=-0.0 size=N/A time=00:22:40.90 bitrate=N/A speed=15.2x    frame=32771 fps=363 q=-0.0 size=N/A time=00:22:46.82 bitrate=N/A speed=15.1x    frame=32938 fps=363 q=-0.0 size=N/A time=00:22:53.78 bitrate=N/A speed=15.1x    frame=33120 fps=363 q=-0.0 size=N/A time=00:23:01.38 bitrate=N/A speed=15.1x    frame=33292 fps=363 q=-0.0 size=N/A time=00:23:08.55 bitrate=N/A speed=15.1x    frame=33463 fps=362 q=-0.0 size=N/A time=00:23:15.68 bitrate=N/A speed=15.1x    frame=33618 fps=362 q=-0.0 size=N/A time=00:23:22.15 bitrate=N/A speed=15.1x    frame=33753 fps=361 q=-0.0 size=N/A time=00:23:27.78 bitrate=N/A speed=15.1x    frame=33876 fps=361 q=-0.0 size=N/A time=00:23:32.91 bitrate=N/A speed=  15x    frame=34028 fps=360 q=-0.0 size=N/A time=00:23:39.25 bitrate=N/A speed=  15x    frame=34190 fps=360 q=-0.0 size=N/A time=00:23:46.00 bitrate=N/A speed=  15x    frame=34327 fps=360 q=-0.0 size=N/A time=00:23:51.72 bitrate=N/A speed=  15x    frame=34454 fps=359 q=-0.0 size=N/A time=00:23:57.01 bitrate=N/A speed=  15x    frame=34630 fps=359 q=-0.0 size=N/A time=00:24:04.35 bitrate=N/A speed=  15x    [Parsed_ssim_16 @ 0000016597a8d940] SSIM Y:0.995113 (23.109671) U:0.994764 (22.809595) V:0.994457 (22.562455) All:0.994945 (22.963191)
[out#0/null @ 000001658a90fd00] video:14903KiB audio:271276KiB subtitle:0KiB other streams:0KiB global headers:0KiB muxing overhead: unknown
frame=34683 fps=359 q=-0.0 Lsize=N/A time=00:24:06.57 bitrate=N/A speed=  15x    
